<svg xmlns="http://www.w3.org/2000/svg" viewBox="0 0 1587.2 947.2">
<rect width="100%" height="100%" fill="#111827"/>
<g opacity="0.32">
<polygon points="248,252 582,252 582,428 248,428 248,252" fill="#1d4ed8" stroke="#93c5fd" stroke-width="2" stroke-dasharray="8 5"/>
<polygon points="248,430 582,430 582,672 248,672 248,430" fill="#1d4ed8" stroke="#93c5fd" stroke-width="2" stroke-dasharray="8 5"/>
<polygon points="588,252 756,252 756,428 588,428 588,252" fill="#1d4ed8" stroke="#93c5fd" stroke-width="2" stroke-dasharray="8 5"/>
<polygon points="588,430 756,430 756,672 588,672 588,430" fill="#1d4ed8" stroke="#93c5fd" stroke-width="2" stroke-dasharray="8 5"/>
<polygon points="856,252 946,252 946,672 856,672 856,252" fill="#1d4ed8" stroke="#93c5fd" stroke-width="2" stroke-dasharray="8 5"/>
<polygon points="760,252 848,252 848,672 760,672 760,252" fill="#1d4ed8" stroke="#93c5fd" stroke-width="2" stroke-dasharray="8 5"/>
<polygon points="956,252 1216,252 1216,422 956,422 956,252" fill="#1d4ed8" stroke="#93c5fd" stroke-width="2" stroke-dasharray="8 5"/>
<polygon points="956,420 1216,420 1216,536 956,536 956,420" fill="#1d4ed8" stroke="#93c5fd" stroke-width="2" stroke-dasharray="8 5"/>
<polygon points="1076,536 1216,536 1216,662 1076,662 1076,536" fill="#1d4ed8" stroke="#93c5fd" stroke-width="2" stroke-dasharray="8 5"/>
<polygon points="984,536 1076,536 1076,662 984,662 984,536" fill="#1d4ed8" stroke="#93c5fd" stroke-width="2" stroke-dasharray="8 5"/>
</g>
<g opacity="0.82">
<polygon points="268.04,269.6 401.64,269.6 401.64,311.84 268.04,311.84 268.04,269.6" fill="#ef4444" stroke="#ffffff" stroke-width="1.5"/>
<polygon points="421.68,266.08 541.92,266.08 541.92,318.88 421.68,318.88 421.68,266.08" fill="#ef4444" stroke="#ffffff" stroke-width="1.5"/>
<polygon points="281.4,350.56 394.96,350.56 394.96,399.84 281.4,399.84 281.4,350.56" fill="#22c55e" stroke="#ffffff" stroke-width="1.5"/>
<polygon points="274.72,459.04 361.56,459.04 361.56,526.8 274.72,526.8 274.72,459.04" fill="#ef4444" stroke="#ffffff" stroke-width="1.5"/>
<polygon points="381.6,466.3 475.12,466.3 475.12,521.96 381.6,521.96 381.6,466.3" fill="#ef4444" stroke="#ffffff" stroke-width="1.5"/>
<polygon points="294.76,570.36 428.36,570.36 428.36,638.12 294.76,638.12 294.76,570.36" fill="#22c55e" stroke="#ffffff" stroke-width="1.5"/>
<polygon points="604.8,273.12 739.2,273.12 739.2,325.92 604.8,325.92 604.8,273.12" fill="#ef4444" stroke="#ffffff" stroke-width="1.5"/>
<polygon points="611.52,350.56 725.76,350.56 725.76,403.36 611.52,403.36 611.52,350.56" fill="#ef4444" stroke="#ffffff" stroke-width="1.5"/>
<polygon points="601.44,459.04 735.84,459.04 735.84,517.12 601.44,517.12 601.44,459.04" fill="#ef4444" stroke="#ffffff" stroke-width="1.5"/>
<polygon points="608.16,551 665.28,551 665.28,623.6 608.16,623.6 608.16,551" fill="#ef4444" stroke="#ffffff" stroke-width="1.5"/>
<polygon points="678.72,551 735.84,551 735.84,628.44 678.72,628.44 678.72,551" fill="#ef4444" stroke="#ffffff" stroke-width="1.5"/>
<polygon points="767.04,327.6 837.44,327.6 837.44,403.2 767.04,403.2 767.04,327.6" fill="#ef4444" stroke="#ffffff" stroke-width="1.5"/>
<polygon points="777.6,436.8 826.88,436.8 826.88,520.8 777.6,520.8 777.6,436.8" fill="#ef4444" stroke="#ffffff" stroke-width="1.5"/>
<polygon points="775.84,554.4 832.16,554.4 832.16,630 775.84,630 775.84,554.4" fill="#22c55e" stroke="#ffffff" stroke-width="1.5"/>
<polygon points="865,294 937,294 937,378 865,378 865,294" fill="#ef4444" stroke="#ffffff" stroke-width="1.5"/>
<polygon points="868.6,411.6 933.4,411.6 933.4,495.6 868.6,495.6 868.6,411.6" fill="#ef4444" stroke="#ffffff" stroke-width="1.5"/>
<polygon points="865,537.6 937,537.6 937,621.6 865,621.6 865,537.6" fill="#ef4444" stroke="#ffffff" stroke-width="1.5"/>
<polygon points="976.8,279.2 1054.8,279.2 1054.8,357.4 976.8,357.4 976.8,279.2" fill="#ef4444" stroke="#ffffff" stroke-width="1.5"/>
<polygon points="1091.2,279.2 1179.6,279.2 1179.6,357.4 1091.2,357.4 1091.2,279.2" fill="#ef4444" stroke="#ffffff" stroke-width="1.5"/>
<polygon points="1002.8,371 1169.2,371 1169.2,401.6 1002.8,401.6 1002.8,371" fill="#ef4444" stroke="#ffffff" stroke-width="1.5"/>
<polygon points="976.8,436.24 1195.2,436.24 1195.2,468.72 976.8,468.72 976.8,436.24" fill="#ef4444" stroke="#ffffff" stroke-width="1.5"/>
<polygon points="987.2,484.96 1080.8,484.96 1080.8,517.44 987.2,517.44 987.2,484.96" fill="#ef4444" stroke="#ffffff" stroke-width="1.5"/>
<polygon points="1106.8,484.96 1190,484.96 1190,517.44 1106.8,517.44 1106.8,484.96" fill="#22c55e" stroke="#ffffff" stroke-width="1.5"/>
<polygon points="995.04,553.64 1064.96,553.64 1064.96,588.92 995.04,588.92 995.04,553.64" fill="#ef4444" stroke="#ffffff" stroke-width="1.5"/>
<polygon points="998.72,609.08 1061.28,609.08 1061.28,641.84 998.72,641.84 998.72,609.08" fill="#ef4444" stroke="#ffffff" stroke-width="1.5"/>
<polygon points="1090,548.6 1134.8,548.6 1134.8,576.32 1090,576.32 1090,548.6" fill="#22c55e" stroke="#ffffff" stroke-width="1.5"/>
<polygon points="1157.2,548.6 1202,548.6 1202,576.32 1157.2,576.32 1157.2,548.6" fill="#22c55e" stroke="#ffffff" stroke-width="1.5"/>
<polygon points="1090,601.52 1134.8,601.52 1134.8,631.76 1090,631.76 1090,601.52" fill="#22c55e" stroke="#ffffff" stroke-width="1.5"/>
<polygon points="1157.2,601.52 1202,601.52 1202,631.76 1157.2,631.76 1157.2,601.52" fill="#22c55e" stroke="#ffffff" stroke-width="1.5"/>
</g>
<g>
<text x="334.84000000000003" y="290.71999999999997" fill="#fff" font-size="10" text-anchor="middle" dominant-baseline="middle">BLD_A_001</text>
<text x="481.8" y="292.48" fill="#fff" font-size="10" text-anchor="middle" dominant-baseline="middle">BLD_A_002</text>
<text x="338.17999999999995" y="375.2" fill="#fff" font-size="10" text-anchor="middle" dominant-baseline="middle">BLD_A_003</text>
<text x="318.14" y="492.92" fill="#fff" font-size="10" text-anchor="middle" dominant-baseline="middle">BLD_I_001</text>
<text x="428.36" y="494.13" fill="#fff" font-size="10" text-anchor="middle" dominant-baseline="middle">BLD_I_002</text>
<text x="361.56" y="604.24" fill="#fff" font-size="10" text-anchor="middle" dominant-baseline="middle">BLD_I_003</text>
<text x="672" y="299.52000000000004" fill="#fff" font-size="10" text-anchor="middle" dominant-baseline="middle">BLD_B_001</text>
<text x="668.64" y="376.96000000000004" fill="#fff" font-size="10" text-anchor="middle" dominant-baseline="middle">BLD_B_002</text>
<text x="668.6400000000001" y="488.08000000000004" fill="#fff" font-size="10" text-anchor="middle" dominant-baseline="middle">BLD_D_001</text>
<text x="636.72" y="587.3" fill="#fff" font-size="10" text-anchor="middle" dominant-baseline="middle">BLD_D_002</text>
<text x="707.28" y="589.72" fill="#fff" font-size="10" text-anchor="middle" dominant-baseline="middle">BLD_D_003</text>
<text x="802.24" y="365.40000000000003" fill="#fff" font-size="10" text-anchor="middle" dominant-baseline="middle">BLD_C_001</text>
<text x="802.24" y="478.8" fill="#fff" font-size="10" text-anchor="middle" dominant-baseline="middle">BLD_C_002</text>
<text x="804" y="592.2" fill="#fff" font-size="10" text-anchor="middle" dominant-baseline="middle">BLD_C_003</text>
<text x="901" y="336" fill="#fff" font-size="10" text-anchor="middle" dominant-baseline="middle">BLD_E_001</text>
<text x="901" y="453.6" fill="#fff" font-size="10" text-anchor="middle" dominant-baseline="middle">BLD_E_002</text>
<text x="901" y="579.6" fill="#fff" font-size="10" text-anchor="middle" dominant-baseline="middle">BLD_E_003</text>
<text x="1015.8" y="318.29999999999995" fill="#fff" font-size="10" text-anchor="middle" dominant-baseline="middle">BLD_G_001</text>
<text x="1135.4" y="318.29999999999995" fill="#fff" font-size="10" text-anchor="middle" dominant-baseline="middle">BLD_G_002</text>
<text x="1086" y="386.29999999999995" fill="#fff" font-size="10" text-anchor="middle" dominant-baseline="middle">BLD_G_003</text>
<text x="1086" y="452.48" fill="#fff" font-size="10" text-anchor="middle" dominant-baseline="middle">BLD_F_001</text>
<text x="1034" y="501.20000000000005" fill="#fff" font-size="10" text-anchor="middle" dominant-baseline="middle">BLD_F_002</text>
<text x="1148.4" y="501.20000000000005" fill="#fff" font-size="10" text-anchor="middle" dominant-baseline="middle">BLD_F_003</text>
<text x="1030" y="571.28" fill="#fff" font-size="10" text-anchor="middle" dominant-baseline="middle">BLD_J_001</text>
<text x="1030" y="625.46" fill="#fff" font-size="10" text-anchor="middle" dominant-baseline="middle">BLD_J_002</text>
<text x="1112.4" y="562.46" fill="#fff" font-size="10" text-anchor="middle" dominant-baseline="middle">BLD_H_001</text>
<text x="1179.6" y="562.46" fill="#fff" font-size="10" text-anchor="middle" dominant-baseline="middle">BLD_H_002</text>
<text x="1112.4" y="616.64" fill="#fff" font-size="10" text-anchor="middle" dominant-baseline="middle">BLD_H_003</text>
<text x="1179.6" y="616.64" fill="#fff" font-size="10" text-anchor="middle" dominant-baseline="middle">BLD_H_004</text>
</g>
</svg>
