<svg xmlns="http://www.w3.org/2000/svg" viewBox="0 0 1587.2 947.2">
<rect width="100%" height="100%" fill="#111827"/>
<g opacity="0.55">
<polygon points="0,226 1587.2,226 1587.2,246 0,246 0,226" fill="#6b7280" stroke="#d1d5db" stroke-width="1"/>
<polygon points="0,678 1587.2,678 1587.2,700 0,700 0,678" fill="#6b7280" stroke="#d1d5db" stroke-width="1"/>
<polygon points="229,0 247,0 247,947.2 229,947.2 229,0" fill="#6b7280" stroke="#d1d5db" stroke-width="1"/>
<polygon points="1216,0 1238,0 1238,947.2 1216,947.2 1216,0" fill="#6b7280" stroke="#d1d5db" stroke-width="1"/>
<polygon points="760,226 776,226 776,678 760,678 760,226" fill="#6b7280" stroke="#d1d5db" stroke-width="1"/>
<polygon points="940,226 956,226 956,678 940,678 940,226" fill="#6b7280" stroke="#d1d5db" stroke-width="1"/>
<polygon points="392,226 406,226 406,678 392,678 392,226" fill="#6b7280" stroke="#d1d5db" stroke-width="1"/>
<polygon points="668,226 682,226 682,678 668,678 668,226" fill="#6b7280" stroke="#d1d5db" stroke-width="1"/>
<polygon points="1068,226 1082,226 1082,678 1068,678 1068,226" fill="#6b7280" stroke="#d1d5db" stroke-width="1"/>
<polygon points="229,336 1238,336 1238,350 229,350 229,336" fill="#6b7280" stroke="#d1d5db" stroke-width="1"/>
<polygon points="229,448 1238,448 1238,464 229,464 229,448" fill="#6b7280" stroke="#d1d5db" stroke-width="1"/>
<polygon points="229,556 1238,556 1238,570 229,570 229,556" fill="#6b7280" stroke="#d1d5db" stroke-width="1"/>
<polygon points="247,246 263,246 263,678 247,678 247,246" fill="#6b7280" stroke="#d1d5db" stroke-width="1"/>
<polygon points="582,246 596,246 596,678 582,678 582,246" fill="#6b7280" stroke="#d1d5db" stroke-width="1"/>
<polygon points="984,246 998,246 998,678 984,678 984,246" fill="#6b7280" stroke="#d1d5db" stroke-width="1"/>
</g>
<g opacity="0.55">
<polygon points="248,252 582,252 582,428 248,428 248,252" fill="#2563eb" stroke="#93c5fd" stroke-width="2"/>
<polygon points="248,430 582,430 582,672 248,672 248,430" fill="#2563eb" stroke="#93c5fd" stroke-width="2"/>
<polygon points="588,252 756,252 756,428 588,428 588,252" fill="#2563eb" stroke="#93c5fd" stroke-width="2"/>
<polygon points="588,430 756,430 756,672 588,672 588,430" fill="#2563eb" stroke="#93c5fd" stroke-width="2"/>
<polygon points="856,252 946,252 946,672 856,672 856,252" fill="#2563eb" stroke="#93c5fd" stroke-width="2"/>
<polygon points="760,252 848,252 848,672 760,672 760,252" fill="#2563eb" stroke="#93c5fd" stroke-width="2"/>
<polygon points="956,252 1216,252 1216,422 956,422 956,252" fill="#2563eb" stroke="#93c5fd" stroke-width="2"/>
<polygon points="956,420 1216,420 1216,536 956,536 956,420" fill="#2563eb" stroke="#93c5fd" stroke-width="2"/>
<polygon points="1076,536 1216,536 1216,662 1076,662 1076,536" fill="#2563eb" stroke="#93c5fd" stroke-width="2"/>
<polygon points="984,536 1076,536 1076,662 984,662 984,536" fill="#2563eb" stroke="#93c5fd" stroke-width="2"/>
</g>
<g opacity="0.95">
<polyline points="0,236 238,236" fill="none" stroke="#facc15" stroke-width="4" stroke-linecap="round"/>
<polyline points="238,236 399,236" fill="none" stroke="#facc15" stroke-width="4" stroke-linecap="round"/>
<polyline points="399,236 675,236" fill="none" stroke="#facc15" stroke-width="4" stroke-linecap="round"/>
<polyline points="675,236 768,236" fill="none" stroke="#facc15" stroke-width="4" stroke-linecap="round"/>
<polyline points="768,236 948,236" fill="none" stroke="#facc15" stroke-width="4" stroke-linecap="round"/>
<polyline points="948,236 1075,236" fill="none" stroke="#facc15" stroke-width="4" stroke-linecap="round"/>
<polyline points="1075,236 1227,236" fill="none" stroke="#facc15" stroke-width="4" stroke-linecap="round"/>
<polyline points="1227,236 1587.2,236" fill="none" stroke="#facc15" stroke-width="4" stroke-linecap="round"/>
<polyline points="0,689 238,689" fill="none" stroke="#facc15" stroke-width="4" stroke-linecap="round"/>
<polyline points="238,689 1227,689" fill="none" stroke="#facc15" stroke-width="4" stroke-linecap="round"/>
<polyline points="1227,689 1587.2,689" fill="none" stroke="#facc15" stroke-width="4" stroke-linecap="round"/>
<polyline points="238,0 238,236" fill="none" stroke="#facc15" stroke-width="4" stroke-linecap="round"/>
<polyline points="238,236 238,343" fill="none" stroke="#facc15" stroke-width="4" stroke-linecap="round"/>
<polyline points="238,343 238,456" fill="none" stroke="#facc15" stroke-width="4" stroke-linecap="round"/>
<polyline points="238,456 238,563" fill="none" stroke="#facc15" stroke-width="4" stroke-linecap="round"/>
<polyline points="238,563 238,689" fill="none" stroke="#facc15" stroke-width="4" stroke-linecap="round"/>
<polyline points="238,689 238,947.2" fill="none" stroke="#facc15" stroke-width="4" stroke-linecap="round"/>
<polyline points="1227,0 1227,236" fill="none" stroke="#facc15" stroke-width="4" stroke-linecap="round"/>
<polyline points="1227,236 1227,343" fill="none" stroke="#facc15" stroke-width="4" stroke-linecap="round"/>
<polyline points="1227,343 1227,456" fill="none" stroke="#facc15" stroke-width="4" stroke-linecap="round"/>
<polyline points="1227,456 1227,563" fill="none" stroke="#facc15" stroke-width="4" stroke-linecap="round"/>
<polyline points="1227,563 1227,689" fill="none" stroke="#facc15" stroke-width="4" stroke-linecap="round"/>
<polyline points="1227,689 1227,947.2" fill="none" stroke="#facc15" stroke-width="4" stroke-linecap="round"/>
<polyline points="768,226 768,236" fill="none" stroke="#22d3ee" stroke-width="2" stroke-linecap="round"/>
<polyline points="768,236 768,343" fill="none" stroke="#22d3ee" stroke-width="2" stroke-linecap="round"/>
<polyline points="768,343 768,456" fill="none" stroke="#22d3ee" stroke-width="2" stroke-linecap="round"/>
<polyline points="768,456 768,563" fill="none" stroke="#22d3ee" stroke-width="2" stroke-linecap="round"/>
<polyline points="768,563 768,678" fill="none" stroke="#22d3ee" stroke-width="2" stroke-linecap="round"/>
<polyline points="948,226 948,236" fill="none" stroke="#22d3ee" stroke-width="2" stroke-linecap="round"/>
<polyline points="948,236 948,343" fill="none" stroke="#22d3ee" stroke-width="2" stroke-linecap="round"/>
<polyline points="948,343 948,456" fill="none" stroke="#22d3ee" stroke-width="2" stroke-linecap="round"/>
<polyline points="948,456 948,563" fill="none" stroke="#22d3ee" stroke-width="2" stroke-linecap="round"/>
<polyline points="948,563 948,678" fill="none" stroke="#22d3ee" stroke-width="2" stroke-linecap="round"/>
<polyline points="399,226 399,236" fill="none" stroke="#22d3ee" stroke-width="2" stroke-linecap="round"/>
<polyline points="399,236 399,343" fill="none" stroke="#22d3ee" stroke-width="2" stroke-linecap="round"/>
<polyline points="399,343 399,456" fill="none" stroke="#22d3ee" stroke-width="2" stroke-linecap="round"/>
<polyline points="399,456 399,563" fill="none" stroke="#22d3ee" stroke-width="2" stroke-linecap="round"/>
<polyline points="399,563 399,678" fill="none" stroke="#22d3ee" stroke-width="2" stroke-linecap="round"/>
<polyline points="675,226 675,236" fill="none" stroke="#22d3ee" stroke-width="2" stroke-linecap="round"/>
<polyline points="675,236 675,343" fill="none" stroke="#22d3ee" stroke-width="2" stroke-linecap="round"/>
<polyline points="675,343 675,456" fill="none" stroke="#22d3ee" stroke-width="2" stroke-linecap="round"/>
<polyline points="675,456 675,563" fill="none" stroke="#22d3ee" stroke-width="2" stroke-linecap="round"/>
<polyline points="675,563 675,678" fill="none" stroke="#22d3ee" stroke-width="2" stroke-linecap="round"/>
<polyline points="1075,226 1075,236" fill="none" stroke="#22d3ee" stroke-width="2" stroke-linecap="round"/>
<polyline points="1075,236 1075,343" fill="none" stroke="#22d3ee" stroke-width="2" stroke-linecap="round"/>
<polyline points="1075,343 1075,456" fill="none" stroke="#22d3ee" stroke-width="2" stroke-linecap="round"/>
<polyline points="1075,456 1075,563" fill="none" stroke="#22d3ee" stroke-width="2" stroke-linecap="round"/>
<polyline points="1075,563 1075,678" fill="none" stroke="#22d3ee" stroke-width="2" stroke-linecap="round"/>
<polyline points="229,343 238,343" fill="none" stroke="#22d3ee" stroke-width="2" stroke-linecap="round"/>
<polyline points="238,343 255,343" fill="none" stroke="#22d3ee" stroke-width="2" stroke-linecap="round"/>
<polyline points="255,343 399,343" fill="none" stroke="#22d3ee" stroke-width="2" stroke-linecap="round"/>
<polyline points="399,343 589,343" fill="none" stroke="#22d3ee" stroke-width="2" stroke-linecap="round"/>
<polyline points="589,343 675,343" fill="none" stroke="#22d3ee" stroke-width="2" stroke-linecap="round"/>
<polyline points="675,343 768,343" fill="none" stroke="#22d3ee" stroke-width="2" stroke-linecap="round"/>
<polyline points="768,343 948,343" fill="none" stroke="#22d3ee" stroke-width="2" stroke-linecap="round"/>
<polyline points="948,343 991,343" fill="none" stroke="#22d3ee" stroke-width="2" stroke-linecap="round"/>
<polyline points="991,343 1075,343" fill="none" stroke="#22d3ee" stroke-width="2" stroke-linecap="round"/>
<polyline points="1075,343 1227,343" fill="none" stroke="#22d3ee" stroke-width="2" stroke-linecap="round"/>
<polyline points="1227,343 1238,343" fill="none" stroke="#22d3ee" stroke-width="2" stroke-linecap="round"/>
<polyline points="229,456 238,456" fill="none" stroke="#22d3ee" stroke-width="2" stroke-linecap="round"/>
<polyline points="238,456 255,456" fill="none" stroke="#22d3ee" stroke-width="2" stroke-linecap="round"/>
<polyline points="255,456 399,456" fill="none" stroke="#22d3ee" stroke-width="2" stroke-linecap="round"/>
<polyline points="399,456 589,456" fill="none" stroke="#22d3ee" stroke-width="2" stroke-linecap="round"/>
<polyline points="589,456 675,456" fill="none" stroke="#22d3ee" stroke-width="2" stroke-linecap="round"/>
<polyline points="675,456 768,456" fill="none" stroke="#22d3ee" stroke-width="2" stroke-linecap="round"/>
<polyline points="768,456 948,456" fill="none" stroke="#22d3ee" stroke-width="2" stroke-linecap="round"/>
<polyline points="948,456 991,456" fill="none" stroke="#22d3ee" stroke-width="2" stroke-linecap="round"/>
<polyline points="991,456 1075,456" fill="none" stroke="#22d3ee" stroke-width="2" stroke-linecap="round"/>
<polyline points="1075,456 1227,456" fill="none" stroke="#22d3ee" stroke-width="2" stroke-linecap="round"/>
<polyline points="1227,456 1238,456" fill="none" stroke="#22d3ee" stroke-width="2" stroke-linecap="round"/>
<polyline points="229,563 238,563" fill="none" stroke="#22d3ee" stroke-width="2" stroke-linecap="round"/>
<polyline points="238,563 255,563" fill="none" stroke="#22d3ee" stroke-width="2" stroke-linecap="round"/>
<polyline points="255,563 399,563" fill="none" stroke="#22d3ee" stroke-width="2" stroke-linecap="round"/>
<polyline points="399,563 589,563" fill="none" stroke="#22d3ee" stroke-width="2" stroke-linecap="round"/>
<polyline points="589,563 675,563" fill="none" stroke="#22d3ee" stroke-width="2" stroke-linecap="round"/>
<polyline points="675,563 768,563" fill="none" stroke="#22d3ee" stroke-width="2" stroke-linecap="round"/>
<polyline points="768,563 948,563" fill="none" stroke="#22d3ee" stroke-width="2" stroke-linecap="round"/>
<polyline points="948,563 991,563" fill="none" stroke="#22d3ee" stroke-width="2" stroke-linecap="round"/>
<polyline points="991,563 1075,563" fill="none" stroke="#22d3ee" stroke-width="2" stroke-linecap="round"/>
<polyline points="1075,563 1227,563" fill="none" stroke="#22d3ee" stroke-width="2" stroke-linecap="round"/>
<polyline points="1227,563 1238,563" fill="none" stroke="#22d3ee" stroke-width="2" stroke-linecap="round"/>
<polyline points="255,246 255,343" fill="none" stroke="#22d3ee" stroke-width="2" stroke-linecap="round"/>
<polyline points="255,343 255,456" fill="none" stroke="#22d3ee" stroke-width="2" stroke-linecap="round"/>
<polyline points="255,456 255,563" fill="none" stroke="#22d3ee" stroke-width="2" stroke-linecap="round"/>
<polyline points="255,563 255,678" fill="none" stroke="#22d3ee" stroke-width="2" stroke-linecap="round"/>
<polyline points="589,246 589,343" fill="none" stroke="#22d3ee" stroke-width="2" stroke-linecap="round"/>
<polyline points="589,343 589,456" fill="none" stroke="#22d3ee" stroke-width="2" stroke-linecap="round"/>
<polyline points="589,456 589,563" fill="none" stroke="#22d3ee" stroke-width="2" stroke-linecap="round"/>
<polyline points="589,563 589,678" fill="none" stroke="#22d3ee" stroke-width="2" stroke-linecap="round"/>
<polyline points="991,246 991,343" fill="none" stroke="#22d3ee" stroke-width="2" stroke-linecap="round"/>
<polyline points="991,343 991,456" fill="none" stroke="#22d3ee" stroke-width="2" stroke-linecap="round"/>
<polyline points="991,456 991,563" fill="none" stroke="#22d3ee" stroke-width="2" stroke-linecap="round"/>
<polyline points="991,563 991,678" fill="none" stroke="#22d3ee" stroke-width="2" stroke-linecap="round"/>
</g>
<g opacity="0.75">
<polygon points="853.959,393.272 939.922,393.272 939.922,437.155 853.959,437.155 853.959,393.272" fill="#f97316" stroke="#fed7aa" stroke-width="2" stroke-dasharray="8 5"/>
<polygon points="1048.902,413.897 1066.438,413.897 1066.438,425.891 1048.902,425.891 1048.902,413.897" fill="#f97316" stroke="#fed7aa" stroke-width="2" stroke-dasharray="8 5"/>
<polygon points="1023.626,394.037 1077.155,394.037 1077.155,429.517 1023.626,429.517 1023.626,394.037" fill="#f97316" stroke="#fed7aa" stroke-width="2" stroke-dasharray="8 5"/>
<polygon points="1056.144,413.842 1058.449,413.842 1058.449,414.31 1056.144,414.31 1056.144,413.842" fill="#f97316" stroke="#fed7aa" stroke-width="2" stroke-dasharray="8 5"/>
<polygon points="1052.286,413.07 1059.825,413.07 1059.825,416.098 1052.286,416.098 1052.286,413.07" fill="#f97316" stroke="#fed7aa" stroke-width="2" stroke-dasharray="8 5"/>
<polygon points="1046.078,408.035 1070.985,408.035 1070.985,409.647 1046.078,409.647 1046.078,408.035" fill="#f97316" stroke="#fed7aa" stroke-width="2" stroke-dasharray="8 5"/>
</g>
<circle cx="238" cy="235" r="8" fill="#22c55e" stroke="#fff" stroke-width="2"/>
<circle cx="1228" cy="684" r="8" fill="#22c55e" stroke="#fff" stroke-width="2"/>
<circle cx="1218" cy="230" r="8" fill="#22c55e" stroke="#fff" stroke-width="2"/>
<circle cx="1218" cy="682" r="8" fill="#22c55e" stroke="#fff" stroke-width="2"/>
<circle cx="248" cy="340" r="8" fill="#f43f5e" stroke="#fff" stroke-width="2"/>
<circle cx="248" cy="551" r="8" fill="#f43f5e" stroke="#fff" stroke-width="2"/>
<circle cx="588" cy="340" r="8" fill="#f43f5e" stroke="#fff" stroke-width="2"/>
<circle cx="588" cy="551" r="8" fill="#f43f5e" stroke="#fff" stroke-width="2"/>
<circle cx="856" cy="462" r="8" fill="#f43f5e" stroke="#fff" stroke-width="2"/>
<circle cx="760" cy="462" r="8" fill="#f43f5e" stroke="#fff" stroke-width="2"/>
<circle cx="956" cy="337" r="8" fill="#f43f5e" stroke="#fff" stroke-width="2"/>
<circle cx="956" cy="478" r="8" fill="#f43f5e" stroke="#fff" stroke-width="2"/>
<circle cx="1076" cy="599" r="8" fill="#f43f5e" stroke="#fff" stroke-width="2"/>
<circle cx="984" cy="599" r="8" fill="#f43f5e" stroke="#fff" stroke-width="2"/>
</svg>
